<svg width="1280" height="640" viewBox="0 0 1280 640" fill="none" xmlns="http://www.w3.org/2000/svg">
  <rect width="1280" height="640" rx="40" fill="#F6F4EE"/>
  <g opacity="0.5">
    <path d="M60 80H1220" stroke="#D7D0C5" stroke-width="2"/>
    <path d="M60 160H1220" stroke="#D7D0C5" stroke-width="2"/>
    <path d="M60 240H1220" stroke="#D7D0C5" stroke-width="2"/>
    <path d="M60 320H1220" stroke="#D7D0C5" stroke-width="2"/>
    <path d="M60 400H1220" stroke="#D7D0C5" stroke-width="2"/>
    <path d="M60 480H1220" stroke="#D7D0C5" stroke-width="2"/>
    <path d="M60 560H1220" stroke="#D7D0C5" stroke-width="2"/>
  </g>
  <rect x="92" y="108" width="320" height="424" rx="32" fill="#172026"/>
  <rect x="136" y="158" width="104" height="22" rx="11" fill="#5EEAD4"/>
  <rect x="136" y="214" width="140" height="22" rx="11" fill="#F59E0B"/>
  <rect x="136" y="270" width="116" height="22" rx="11" fill="#A7F3D0"/>
  <rect x="136" y="326" width="160" height="22" rx="11" fill="#FCD34D"/>
  <rect x="136" y="382" width="126" height="22" rx="11" fill="#5EEAD4"/>
  <rect x="136" y="438" width="92" height="22" rx="11" fill="#F59E0B"/>
  <rect x="500" y="146" width="280" height="348" rx="36" fill="#0F766E"/>
  <rect x="544" y="192" width="98" height="98" rx="24" fill="#F6F4EE"/>
  <rect x="660" y="192" width="76" height="18" rx="9" fill="#D5F5EE"/>
  <rect x="660" y="228" width="92" height="18" rx="9" fill="#FDE3A7"/>
  <rect x="660" y="264" width="68" height="18" rx="9" fill="#D5F5EE"/>
  <rect x="544" y="332" width="192" height="18" rx="9" fill="#D5F5EE"/>
  <rect x="544" y="368" width="158" height="18" rx="9" fill="#FDE3A7"/>
  <rect x="544" y="404" width="176" height="18" rx="9" fill="#D5F5EE"/>
  <rect x="868" y="182" width="312" height="284" rx="36" fill="#EFEAE1"/>
  <path d="M920 250H1010C1045.35 250 1074 278.654 1074 314V348H1128" stroke="#0F766E" stroke-width="18" stroke-linecap="round"/>
  <circle cx="920" cy="250" r="18" fill="#0F766E"/>
  <circle cx="1128" cy="348" r="18" fill="#F59E0B"/>
  <circle cx="1074" cy="314" r="16" fill="#172026"/>
  <rect x="902" y="400" width="116" height="20" rx="10" fill="#172026"/>
  <rect x="1038" y="400" width="92" height="20" rx="10" fill="#0F766E"/>
</svg>
